<?xml version="1.0" encoding="UTF-8" standalone="no"?>
<!DOCTYPE svg PUBLIC "-//W3C//DTD SVG 1.1//EN" "http://www.w3.org/Graphics/SVG/1.1/DTD/svg11.dtd">
<svg width="100%" height="100%" viewBox="0 0 1024 1024" version="1.1" xmlns="http://www.w3.org/2000/svg" xmlns:xlink="http://www.w3.org/1999/xlink" xml:space="preserve" xmlns:serif="http://www.serif.com/" style="fill-rule:evenodd;clip-rule:evenodd;stroke-linejoin:round;stroke-miterlimit:2;">
    <g>
        <path d="M924,356.627C924,346.845 924.004,337.062 923.944,327.279C923.895,319.038 923.8,310.799 923.576,302.562C923.092,284.609 922.033,266.502 918.84,248.749C915.602,230.741 910.314,213.98 901.981,197.617C893.789,181.534 883.088,166.817 870.32,154.058C857.555,141.299 842.834,130.605 826.746,122.418C810.366,114.083 793.587,108.797 775.558,105.56C757.803,102.372 739.691,101.315 721.738,100.83C713.495,100.607 705.253,100.513 697.008,100.462C687.22,100.402 677.432,100.407 667.644,100.407L553.997,100L468.997,100L357.361,100.407C347.554,100.407 337.747,100.402 327.94,100.462C319.678,100.513 311.42,100.607 303.161,100.83C285.167,101.315 267.014,102.373 249.217,105.565C231.164,108.801 214.36,114.085 197.958,122.414C181.835,130.602 167.083,141.297 154.291,154.058C141.501,166.816 130.78,181.53 122.573,197.61C114.217,213.981 108.919,230.752 105.673,248.77C102.477,266.516 101.418,284.617 100.931,302.562C100.709,310.8 100.613,319.039 100.563,327.279C100.503,337.063 100,349.216 100,358.999L100.003,469.089L100,554.998L100.508,667.427C100.508,677.223 100.504,687.019 100.563,696.815C100.613,705.067 100.709,713.317 100.932,721.566C101.418,739.542 102.479,757.675 105.678,775.452C108.923,793.484 114.22,810.269 122.569,826.653C130.777,842.759 141.5,857.495 154.291,870.272C167.082,883.049 181.83,893.757 197.95,901.956C214.362,910.302 231.174,915.595 249.238,918.836C267.027,922.029 285.174,923.088 303.161,923.573C311.42,923.796 319.679,923.891 327.941,923.941C337.748,924.001 347.554,923.997 357.361,923.997L470.006,924L555.217,924L667.644,923.996C677.432,923.996 687.22,924.001 697.008,923.941C705.253,923.891 713.495,923.796 721.738,923.573C739.698,923.087 757.816,922.027 775.579,918.832C793.597,915.591 810.368,910.3 826.739,901.959C842.831,893.761 857.554,883.051 870.32,870.272C883.086,857.497 893.786,842.763 901.978,826.66C910.316,810.268 915.604,793.475 918.844,775.431C922.034,757.661 923.092,739.535 923.577,721.566C923.8,713.316 923.895,705.066 923.944,696.815C924.005,687.019 924,677.223 924,667.427C924,667.427 923.994,556.983 923.994,554.998L923.994,468.999C923.994,467.533 924,356.627 924,356.627" style="fill:white;"/>
        <g id="path25" transform="matrix(1.16132,0,0,1.16132,319.313,180.07)">
            <path d="M132.858,124.633C127.009,121.454 123.392,112.83 124.582,104.897C125.826,96.598 130.748,91.953 140.177,90.18C149.882,88.355 323.926,88.681 331.166,90.538C347.442,94.712 349.708,118.466 334.439,124.846C326.936,127.981 138.653,127.782 132.858,124.633L132.858,124.633Z" style="fill-rule:nonzero;"/>
        </g>
        <g id="path23" transform="matrix(1.16132,0,0,1.16132,319.313,180.07)">
            <path d="M13.443,124.761C8.191,122.474 3.67,114.495 3.67,107.511C3.67,100.27 9.54,93.103 17.387,90.761C26.775,87.961 68.497,88.738 73.124,91.8C78.188,95.151 81.291,101.66 81.291,108.934C81.291,116.535 78.475,121.372 72.143,124.647C66.201,127.719 20.441,127.809 13.443,124.761L13.443,124.761Z" style="fill-rule:nonzero;"/>
        </g>
        <g id="path21" transform="matrix(1.16132,0,0,1.16132,319.313,180.07)">
            <path d="M135.056,214.532C125.833,210.453 121.764,198.918 125.986,188.815C130.324,178.431 129.354,178.535 217.445,179.009C294.081,179.421 295.758,179.494 299.966,182.611C302.329,184.361 305.229,188.528 306.411,191.87C308.361,197.387 308.291,198.488 305.65,203.81C304.049,207.034 300.807,211.087 298.445,212.815C294.254,215.88 292.262,215.966 217.018,216.313C153.539,216.605 139.033,216.29 135.056,214.532Z" style="fill-rule:nonzero;"/>
        </g>
        <g id="path19" transform="matrix(1.16132,0,0,1.16132,319.313,180.07)">
            <path d="M16.607,215.623C10.099,214.038 3.67,205.09 3.67,197.618C3.67,190.796 8.318,183.045 13.777,180.764C21.207,177.659 66.11,177.823 72.209,180.977C81.216,185.635 84.314,200.288 77.992,208.326C72.355,215.492 66.928,216.736 42.149,216.541C29.775,216.444 18.281,216.031 16.607,215.623Z" style="fill-rule:nonzero;"/>
        </g>
        <g id="path23-5" transform="matrix(1.16132,0,0,1.16132,319.313,180.07)">
            <path d="M13.802,302.914C8.55,300.627 4.029,292.648 4.029,285.664C4.029,278.423 9.899,271.256 17.746,268.914C27.133,266.114 68.855,266.891 73.483,269.953C78.547,273.304 81.65,279.813 81.65,287.087C81.65,294.688 78.834,299.525 72.502,302.8C66.56,305.872 20.8,305.962 13.802,302.914L13.802,302.914Z" style="fill-rule:nonzero;"/>
        </g>
        <g id="path19-5" transform="matrix(1.16132,0,0,1.16132,319.313,180.07)">
            <path d="M16.966,393.776C10.458,392.191 4.029,383.243 4.029,375.771C4.029,368.949 8.677,361.198 14.135,358.917C21.566,355.812 66.469,355.976 72.568,359.13C81.575,363.788 84.673,378.441 78.351,386.479C72.714,393.645 67.286,394.889 42.508,394.694C30.134,394.597 18.64,394.184 16.966,393.776Z" style="fill-rule:nonzero;"/>
        </g>
        <g id="path11" transform="matrix(1.16132,0,0,1.16132,319.313,180.07)">
            <path d="M15.085,481.663C8.93,479.016 4.779,472.765 4.035,465.022C3.371,458.112 3.732,457.079 8.7,451.655L14.085,445.776L50.352,445.28C89.744,444.742 95.85,445.565 100.995,452.106C104.535,456.606 105.204,466.848 102.365,473.079C98.392,481.798 96.053,482.274 55.418,482.637C34.909,482.821 16.759,482.382 15.085,481.662L15.085,481.663Z" style="fill-rule:nonzero;"/>
        </g>
        <g id="text31" transform="matrix(1.16132,0,0,1.16132,-1447.78,885.717)">
            <path d="M1743.91,-165.539L1756.9,-165.539C1760.53,-165.539 1764.02,-166.983 1766.58,-169.551C1769.15,-172.119 1770.6,-175.605 1770.6,-179.237L1770.6,-199.405C1770.6,-203.037 1772.04,-206.523 1774.61,-209.091C1777.17,-211.659 1780.66,-213.103 1784.29,-213.103L1803.35,-213.103C1806.98,-213.103 1810.47,-214.547 1813.03,-217.115C1815.6,-219.683 1817.05,-223.17 1817.05,-226.801L1817.05,-237.804C1817.05,-241.435 1815.6,-244.922 1813.03,-247.49C1810.47,-250.058 1806.98,-251.502 1803.35,-251.502L1784.29,-251.502C1780.66,-251.502 1777.17,-252.946 1774.61,-255.514C1772.04,-258.082 1770.6,-261.568 1770.6,-265.199L1770.6,-285.368C1770.6,-289 1769.15,-292.486 1766.58,-295.054C1764.02,-297.622 1760.53,-299.066 1756.9,-299.066L1743.91,-299.066C1740.28,-299.066 1736.79,-297.622 1734.23,-295.054C1731.66,-292.486 1730.21,-289 1730.21,-285.368L1730.21,-265.199C1730.21,-261.568 1728.77,-258.082 1726.2,-255.514C1723.63,-252.946 1720.15,-251.502 1716.52,-251.502L1697.46,-251.502C1693.83,-251.502 1690.35,-250.058 1687.78,-247.49C1685.21,-244.922 1683.77,-241.435 1683.77,-237.804L1683.77,-226.801C1683.77,-223.17 1685.21,-219.683 1687.78,-217.115C1690.35,-214.547 1693.83,-213.103 1697.46,-213.103L1716.52,-213.103C1720.15,-213.103 1723.63,-211.659 1726.2,-209.091C1728.77,-206.523 1730.21,-203.037 1730.21,-199.405L1730.21,-179.237C1730.21,-175.605 1731.66,-172.119 1734.23,-169.551C1736.79,-166.983 1740.28,-165.539 1743.91,-165.539Z" style="fill-rule:nonzero;"/>
        </g>
    </g>
</svg>
